<svg xmlns="http://www.w3.org/2000/svg" width="512" height="512" viewBox="0 0 512 512">
  <g id="グループ_2" data-name="グループ 2" transform="translate(16890 20542)">
    <rect id="長方形_2657" data-name="長方形 2657" width="512" height="512" transform="translate(-16890 -20542)" fill="#282831"/>
    <path id="パス_1997" data-name="パス 1997" d="M204.74-387.159a201.45,201.45,0,0,1,13.168-39.991c-23.409-16.094-44.868-22.922-73.155-22.922-60.962,0-102.9,36.577-102.9,90.712,0,41.942,21.946,66.327,80.958,90.712,34.139,14.143,41.454,18.045,53.159,28.774,11.217,10.729,17.069,24.385,17.069,41.454,0,39.991-29.262,68.765-68.765,68.765-31.7,0-62.913-20-76.081-49.258H43.312c-1.463,14.631-2.926,22.434-9.754,43.405C55.992-117.462,84.279-108.2,115.491-108.2c65.351,0,115.584-46.331,115.584-106.806,0-22.434-7.315-40.967-21.946-55.11-11.7-11.7-20.971-17.069-53.647-30.725-28.774-11.7-43.405-19.508-55.11-27.8-13.656-10.242-21.459-26.823-21.459-43.893,0-33.163,25.848-58.524,59.987-58.524,27.8,0,51.7,17.069,60.962,43.893Zm90.446,221.415c-15.119,0-27.311,12.192-27.311,26.336,0,15.119,11.7,27.8,26.336,27.8,15.606,0,27.8-11.7,27.8-27.311A27.061,27.061,0,0,0,295.186-165.744Z" transform="translate(-16811.311 -20007.227)" fill="#fff" style="mix-blend-mode: difference;isolation: isolate"/>
  </g>
</svg>
