<svg xmlns="http://www.w3.org/2000/svg" xmlns:xlink="http://www.w3.org/1999/xlink" width="892" height="892" viewBox="0 0 892 892">
  <defs>
    <clipPath id="clip-path">
      <rect id="長方形_2665" data-name="長方形 2665" width="892" height="892" transform="translate(806 201.758)" fill="#fff" stroke="rgba(255,255,255,0.96)" stroke-width="1" style="mix-blend-mode: difference;isolation: isolate"/>
    </clipPath>
  </defs>
  <g id="マスクグループ_6" data-name="マスクグループ 6" transform="translate(-806 -201.758)" clip-path="url(#clip-path)" style="mix-blend-mode: difference;isolation: isolate">
    <g id="グループ_12" data-name="グループ 12" transform="translate(806.001 206.814)" style="mix-blend-mode: difference;isolation: isolate">
      <path id="パス_2001" data-name="パス 2001" d="M525.248,75.858a18.514,18.514,0,0,0-13.645-17c-9.545-2.65-18.742,2.439-21.313,11.716a15.966,15.966,0,0,0,2.6,13.939c2.628,3.226,6.118,6.539,13.259,12.045,8.077,6.354,10.252,8.574,12.616,12.753,3,5.089,3.608,10.841,1.868,17.112-4.693,16.914-22.333,25.976-40.609,20.909a37.344,37.344,0,0,1-20.794-13.992,49.174,49.174,0,0,0,6.095-11.382l1.362.378a24.829,24.829,0,0,0,17.459,19.674c11.048,3.063,21.458-2.716,24.561-13.9a15.894,15.894,0,0,0-1.56-12.92c-2.439-3.907-4.184-5.568-12.634-12.168C479.9,91.63,475.652,83.109,478.9,71.376c4.2-15.134,18.764-22.113,35.81-17.384A34.73,34.73,0,0,1,533.4,66.071a58.321,58.321,0,0,0-6.781,10.164Z" transform="translate(52.439 -38.944)" fill="#fff" stroke="rgba(255,255,255,0.96)" stroke-width="1"/>
      <path id="パス_2002" data-name="パス 2002" d="M505.236,90.548c6.095-11.825,13.434-26.991,16.822-34.8a34.993,34.993,0,0,0,5.651,3.551,22.278,22.278,0,0,0,5.041,1.96c-6.016,10.432-10.943,19.678-22.741,42.574l-1.362,2.641c7.418-6.051,17.24-6.877,26.424-2.144a24.315,24.315,0,0,1,11.864,12.806c2.145,5.721,1.574,11.157-1.989,18.074-.977,1.89-2.725,4.97-4.6,8.3-2.334,4.214-4.6,8.3-6.35,11.694-4.149,8.051-7.01,14.22-9.164,19.322a42.17,42.17,0,0,0-5.4-3.423,38.088,38.088,0,0,0-5.291-2.092c3.165-4.9,13.07-22.878,18.906-34.2,3.238-6.293,4.31-11.149,3.6-15.337a16.461,16.461,0,0,0-8.66-10.995,17.081,17.081,0,0,0-17.86.984c-3.77,2.676-6.349,6.442-11.667,16.756-6.029,11.7-10.9,21.766-13.5,27.747a54.914,54.914,0,0,0-5.15-3.291,47.735,47.735,0,0,0-5.542-2.219c5.493-9.11,11.773-20.68,24.934-46.216Z" transform="translate(103.498 -27.998)" fill="#fff" stroke="rgba(255,255,255,0.96)" stroke-width="1"/>
      <path id="パス_2003" data-name="パス 2003" d="M551.733,132.866c-12.805,15.482-31.935,17.288-47.632,4.3-15.811-13.078-17.49-31.912-4.144-48.049,13.617-16.466,32.254-18.127,48.826-4.416C564.811,97.961,565.892,115.745,551.733,132.866Zm-42.2-36.008c-11.992,14.5-12.89,28.454-2.527,37.023,10.137,8.385,23.875,4.873,35.418-9.079,12.625-15.266,13.7-28.335,2.91-37.261C534.867,78.88,521.438,82.462,509.533,96.858Z" transform="translate(160.249 38.965)" fill="#fff" stroke="rgba(255,255,255,0.96)" stroke-width="1"/>
      <path id="パス_2004" data-name="パス 2004" d="M547.943,128.753c-12.932,7.87-28,17.7-34.277,22.346a56.636,56.636,0,0,0-3.194-6.341,46.836,46.836,0,0,0-4.014-5.506c10.741-5.212,19.354-10.12,42.566-24.244,21.035-12.8,30.73-19.191,39.039-25.409a38.058,38.058,0,0,0,3.047,6.1,41.839,41.839,0,0,0,4.161,5.748c-5.735,2.83-22.3,12.08-32.334,18.184l-3.146,1.916c.615,1.279,1.056,2.008,1.056,2.008l6.577,11.074,7.234,12.164,7.55,12.137,6.74,10.806a17.314,17.314,0,0,0,1.3,1.859c1.407-.685,2.856-1.569,3.217-1.789,10.036-6.108,25.747-16.492,30.941-20.482a44.516,44.516,0,0,0,3.269,6.46,38.027,38.027,0,0,0,4.013,5.511c-9.1,4.377-19.644,10.459-40.438,23.11-22.97,13.979-31.526,19.516-41.167,26.538a45.925,45.925,0,0,0-3.05-6.1,57.126,57.126,0,0,0-4.232-5.871c7.524-3.423,22.447-11.839,36.352-20.3a58.1,58.1,0,0,0,5.654-3.77l-.984-1.89c-2.056-3.384-2.2-3.625-14-23.286l-7.427-12.212c-5.569-8.872-5.858-9.351-8.042-12.665Z" transform="translate(212.766 86.887)" fill="#fff" stroke="rgba(255,255,255,0.96)" stroke-width="1"/>
      <path id="パス_2005" data-name="パス 2005" d="M566.217,119.889a27.35,27.35,0,0,0,3.912-.782,28.231,28.231,0,0,0,3.653-1.6c7.544,6.082,11.7,11.746,14.079,19.3,4.245,13.5-.905,24.016-13.865,28.089-2.426.764-5.44,1.564-8.99,2.536-5.172,1.472-8.724,2.443-13.852,4.056-8.235,2.588-11.3,3.7-12.748,4.75a4.7,4.7,0,0,0-2.065,5.691c.254.813.6,1.441,1.159,2.751l-2.563.8a22.947,22.947,0,0,1-4.825-8.27c-1.7-5.4-.07-9.176,5.076-11.681-8.349-3.9-13.53-9.541-15.991-17.371-3.524-11.2.611-20.214,10.736-23.4,5.668-1.784,11.206-1.156,15.094,1.775,3.669,2.707,6.249,6.2,10.661,15.042,4.676,9.206,6.556,11.878,9.958,14.669l.269-.084c7.286-2.294,7.695-2.421,10.459-4.478,5.207-3.713,7.022-10.217,4.9-16.967a19.179,19.179,0,0,0-14.629-13.5Zm-6.666,36.8c-9.171-15.952-9.474-16.448-11.812-18.681-3.607-3.463-7.888-4.346-13.02-2.729-7.15,2.25-10.573,8.815-8.329,15.965,1.869,5.941,7.423,10.872,14.195,12.594,3.511-1.1,4.321-1.358,7.063-2.07l3.242-1.019,8.183-2.276,1.213-.382Z" transform="translate(251.807 181.64)" fill="#fff" stroke="rgba(255,255,255,0.96)" stroke-width="1"/>
      <path id="パス_2006" data-name="パス 2006" d="M528.091,200.4a36.4,36.4,0,0,0-.043-6.688,34.973,34.973,0,0,0-1.468-6.671c9.343-9.312,18.128-18.567,22.043-23,7.95-9.013,7.95-9.013,8.164-9.61a2.542,2.542,0,0,0,.343-2.03L557,151.281l-1.687.189-6.31.857c-15.731,1.92-21.484,2.711-25.949,3.5a31.393,31.393,0,0,0-.106-5.972,30.535,30.535,0,0,0-1.216-5.7c7.8-.312,29.376-2.18,46.391-4.1l7.312-.826,17.28-2.1,16.448-1.855c7.017-.936,9.685-1.239,16.25-2.408a35.463,35.463,0,0,0,.088,5.827,58.773,58.773,0,0,0,1.28,6.266c-9.923.408-36.3,2.676-53.45,4.614-3.8.431-6.891.782-13.345,1.652l.188,1.688c.322,2.813,2.4,4.856,13.2,13.46,4.368,3.353,16.65,12.5,18.983,14.229a27.05,27.05,0,0,0,.087,4.548,43.11,43.11,0,0,0,1.715,7.638,19.581,19.581,0,0,1-2.034-1.617l-6.716-6.5c-11-10.437-12.115-11.448-14.026-13.227l-7.076-5.893c-.153-.127-.64-.641-1.594-1.529-.892.953-3.524,4.1-8.218,9.189-2.527,2.847-5.194,5.713-7.862,8.578-2.9,3.318-5.924,6.794-9.088,10.283-3.793,4.276-5.835,6.359-8.267,8.767Z" transform="translate(264.616 233.765)" fill="#fff" stroke="rgba(255,255,255,0.96)" stroke-width="1"/>
      <path id="パス_2007" data-name="パス 2007" d="M577.128,159.056a18.578,18.578,0,0,0,7.9.606c4.742,8.455,6.491,15.262,5.88,23.163-1.086,14.106-9.778,21.955-23.321,20.909-2.539-.193-5.634-.576-9.29-1-5.353-.554-9.009-.976-14.37-1.389-8.6-.664-11.861-.773-13.6-.338a4.7,4.7,0,0,0-4.039,4.513c-.066.848.022,1.564.053,2.984l-2.681-.206a23.079,23.079,0,0,1-1.4-9.474c.434-5.643,3.353-8.539,9.061-8.952-6.294-6.728-9.008-13.891-8.375-22.073.9-11.712,8.1-18.536,18.676-17.723,5.928.457,10.833,3.107,13.35,7.273,2.395,3.876,3.494,8.077,4.3,17.929.91,10.287,1.656,13.469,3.774,17.323l.282.018c7.615.589,8.041.62,11.372-.259,6.219-1.507,10.318-6.868,10.868-13.922a19.189,19.189,0,0,0-8.552-17.973Zm-19.894,31.68c-2.571-18.224-2.668-18.8-4-21.74-2.061-4.557-5.708-6.965-11.069-7.383-7.475-.576-13.1,4.245-13.676,11.72-.479,6.209,2.844,12.849,8.486,16.976,3.669.281,4.516.347,7.325.707l3.387.259,8.442.932,1.27.1Z" transform="translate(266.217 291.96)" fill="#fff" stroke="rgba(255,255,255,0.96)" stroke-width="1"/>
      <path id="パス_2008" data-name="パス 2008" d="M593.771,193.385c7.062,8.582,8.635,15.714,5.444,24.938-3.516,10.164-9.924,14.831-19.675,14.453,7.032,7.374,9.08,16.167,5.748,25.8-2.084,6.016-5.8,10.718-10.529,13.122-4.592,2.452-9.114,2.536-15.266.409-2.134-.742-6.371-2.355-10.736-4.016-4.856-1.978-10.023-3.916-14.836-5.581-6.952-2.408-12.528-4.034-18.948-5.809a32.309,32.309,0,0,0,3.933-11.364c10.463,4.368,29.667,11.61,39.16,14.9,6.682,2.312,10.172,2.624,13.812,1.187a15.1,15.1,0,0,0,8.609-9.3,16.648,16.648,0,0,0-2.286-15.464c-2.6-3.3-9.053-6.723-19.48-10.331-12.3-4.258-24.961-8.341-29.869-9.738a33.443,33.443,0,0,0,2.435-5.3,47.379,47.379,0,0,0,1.5-6.069c5.787,2.751,20.263,8.508,30.69,12.116,12.168,4.21,15.606,5.1,19.142,4.825,5.732-.558,9.527-3.736,11.655-9.888,2.451-7.084.605-13.864-4.936-18.175-3.726-3.085-7.646-4.742-22.085-9.738-11.365-3.933-18.677-6.166-24.608-7.62a52.008,52.008,0,0,0,2.565-5.7,35.447,35.447,0,0,0,1.367-5.669c9.615,4.223,19.682,8.011,32.251,12.357,14.04,4.86,22.688,7.554,30.189,9.25a25.134,25.134,0,0,0-2.342,5.027,25.417,25.417,0,0,0-1.364,5.669c-1.691-.734-7.127-2.769-9.931-3.735Z" transform="translate(241.672 344.105)" fill="#fff" stroke="rgba(255,255,255,0.96)" stroke-width="1"/>
      <path id="パス_2009" data-name="パス 2009" d="M576.9,217.7a26.888,26.888,0,0,0,3.073,2.54,26.273,26.273,0,0,0,3.533,1.837c.027,9.694-1.762,16.488-6.139,23.093-7.818,11.795-19.235,14.418-30.555,6.912-2.123-1.41-4.64-3.247-7.629-5.4-4.4-3.094-7.391-5.243-11.874-8.213-7.2-4.768-9.989-6.446-11.715-6.917a4.714,4.714,0,0,0-5.727,1.977c-.469.708-.741,1.375-1.4,2.632l-2.246-1.481a23.159,23.159,0,0,1,3.393-8.96c3.129-4.715,7.088-5.827,12.278-3.406-2.224-8.942-1.1-16.523,3.427-23.361,6.49-9.791,16.1-12.247,24.948-6.385,4.952,3.282,7.949,7.985,8.116,12.849.21,4.553-.879,8.758-4.975,17.753-4.213,9.431-5.106,12.573-5.137,16.972l.238.153c6.367,4.223,6.723,4.456,10.058,5.313,6.166,1.71,12.363-.976,16.274-6.873a19.189,19.189,0,0,0,1.283-19.863Zm-32.8,17.982c6.632-17.169,6.824-17.718,7.092-20.939.418-4.983-1.595-8.864-6.077-11.834-6.25-4.144-13.509-2.672-17.652,3.577-3.437,5.189-3.775,12.607-.853,18.962,3.068,2.03,3.775,2.5,6.056,4.179l2.83,1.877,6.921,4.93,1.064.7Z" transform="translate(211.944 425.754)" fill="#fff" stroke="rgba(255,255,255,0.96)" stroke-width="1"/>
      <path id="パス_2010" data-name="パス 2010" d="M554.3,281.528c9.3,9.321,16.1,15.732,21.994,21.041a48.971,48.971,0,0,0-5,4.2,27.077,27.077,0,0,0-3.511,4.3c-3.9-4.707-4.1-4.9-23.991-25.844L532.09,273.3l-12.1-12.318c-10-9.821-16.1-15.93-18.3-18.131a90.76,90.76,0,0,0-6.8-6.416,19.69,19.69,0,0,0,3.911-3.1,26.934,26.934,0,0,0,3.5-4.3l2.4,2.6,4.7,5.111,2.4,2.4c-3.793-11.012-1.784-20.016,6.034-27.817,12.119-12.1,29.327-10.876,43.227,3.045,15.5,15.525,17.082,33.745,3.955,46.84-7.509,7.5-16.22,9.593-25.021,5.981a24.887,24.887,0,0,1,2,1.806c1.5,1.5,3.7,3.7,8.7,8.911Zm-1.943-58.446c-12.2-12.225-24.406-14.436-33.02-5.836-8.815,8.8-6.029,23.01,7.168,36.233,11.9,11.922,24.508,14.132,32.923,5.735C568.841,249.818,566.354,237.1,552.357,223.082Z" transform="translate(173.519 471.944)" fill="#fff" stroke="rgba(255,255,255,0.96)" stroke-width="1"/>
      <path id="パス_2011" data-name="パス 2011" d="M553.349,254.9a27.589,27.589,0,0,0,1.824,3.542,28.044,28.044,0,0,0,2.535,3.072c-3.766,8.925-8.068,14.48-14.681,18.844-11.808,7.787-23.335,5.734-30.819-5.6-1.4-2.131-3-4.8-4.9-7.954-2.843-4.562-4.75-7.713-7.712-12.2-4.75-7.2-6.662-9.843-8.069-10.947a4.7,4.7,0,0,0-6.042-.417c-.708.466-1.222.971-2.325,1.868l-1.476-2.241a23,23,0,0,1,6.622-6.917c4.725-3.116,8.8-2.584,12.625,1.67,1.459-9.1,5.448-15.627,12.3-20.148,9.8-6.464,19.6-4.97,25.443,3.885,3.274,4.961,4.192,10.459,2.444,15-1.591,4.271-4.237,7.708-11.527,14.387-7.567,7.022-9.619,9.563-11.364,13.6l.154.237c4.209,6.377,4.442,6.732,7.181,8.824,5,3.986,11.75,3.937,17.656.048a19.182,19.182,0,0,0,8.952-17.776Zm-37.217,3.709c12.815-13.2,13.211-13.631,14.714-16.488,2.337-4.425,2-8.78-.958-13.271-4.131-6.258-11.378-7.743-17.64-3.612-5.194,3.427-8.4,10.125-8.2,17.112,2.021,3.068,2.491,3.775,3.933,6.214l1.867,2.834,4.439,7.242.7,1.063Z" transform="translate(128.658 507.454)" fill="#fff" stroke="rgba(255,255,255,0.96)" stroke-width="1"/>
      <path id="パス_2012" data-name="パス 2012" d="M492.795,304.836c3.924,12.56,6.978,21.388,9.747,28.823a49.6,49.6,0,0,0-6.385,1.4,27.352,27.352,0,0,0-5.1,2.184c-1.271-5.977-1.358-6.245-9.285-34l-4.843-15.979-5.01-16.518c-4.311-13.329-6.882-21.564-7.814-24.535a91.232,91.232,0,0,0-3.049-8.833,19.509,19.509,0,0,0,4.891-.936,27.008,27.008,0,0,0,5.1-2.184l.918,3.423,1.8,6.7,1.011,3.239c1.74-11.509,7.695-18.553,18.228-21.845,16.338-5.106,31.021,3.946,36.887,22.719,6.534,20.931-.5,37.8-18.188,43.325-10.129,3.169-18.813.989-24.939-6.293a26.643,26.643,0,0,1,.937,2.523c.633,2.026,1.56,5,3.577,11.927Zm25.347-52.676c-5.146-16.479-14.936-24.091-26.551-20.465-11.883,3.713-16,17.595-10.428,35.423,5.019,16.066,15.16,23.866,26.507,20.328C520.365,283.479,524.048,271.064,518.142,252.16Z" transform="translate(58.658 544.338)" fill="#fff" stroke="rgba(255,255,255,0.96)" stroke-width="1"/>
      <path id="パス_2013" data-name="パス 2013" d="M445.523,245.865l.167-1.3a15.268,15.268,0,0,0,.307-5.854c8.165-7,13.759-9.51,23.2-10.38,20.285-1.876,34.316,10.041,36.228,30.752.989,10.7-1.164,19.713-6.494,26.6-5.063,6.719-12.27,10.226-22.693,11.188-17.895,1.652-29.167-8.108-30.884-26.7-.093-.989-.247-2.676-.264-4.381,4.534-.132,11.17-.606,23-1.7,8.737-.8,15.622-1.586,25.181-2.755l-.29-3.1c-1.455-15.776-11.716-25.343-25.8-24.042a28.235,28.235,0,0,0-20.786,11.865Zm14.541,37.441c3.314,6.657,8.863,9.843,16.049,9.175,10.986-1.01,17.876-11.03,17.525-25.628-4.241.25-10.736.708-21.581,1.709-9.3.857-10.7.984-15.447,2C457.621,276.858,458.509,280.326,460.064,283.305Z" transform="translate(4.448 557.168)" fill="#fff" stroke="rgba(255,255,255,0.96)" stroke-width="1"/>
      <path id="パス_2014" data-name="パス 2014" d="M473.113,244.268c-3.806-7.132-8.481-10.648-15.394-11.223-7.611-.628-13.842,4.245-14.418,11.153-.527,6.35,2.589,9.874,12.225,13.517,7.976,3.076,10.691,4.583,13.324,7.071,3.433,3.125,5.256,8.53,4.807,13.891-1.006,12.124-10.946,18.966-25.755,17.731-5.924-.492-10.081-1.687-16.355-4.768a57.683,57.683,0,0,0,4.57-10.551l1.411.114c1.033,6.337,5.677,10.27,13.007,10.885s12.95-3.753,13.513-10.525a10.789,10.789,0,0,0-3.629-9.241c-2.259-1.894-4.3-2.913-11.742-5.665-11.716-4.24-15.829-9.413-15.068-18.579,1.045-12.546,12.677-20.949,27.2-19.745,6.486.541,12.832,2.773,17.239,6.122a77.806,77.806,0,0,0-3.805,9.91Z" transform="translate(-41.519 557.429)" fill="#fff" stroke="rgba(255,255,255,0.96)" stroke-width="1"/>
      <path id="パス_2015" data-name="パス 2015" d="M422.3,314.551a7.078,7.078,0,1,1,5.365,8.332A7.168,7.168,0,0,1,422.3,314.551Zm11.817-22.271a26.489,26.489,0,0,0-5.66-.589c1.529-5.322,5.374-21.862,7.747-33.367,1.828-8.872,4.755-25.176,5.594-31.358a29.385,29.385,0,0,0,5.572,1.723,41.191,41.191,0,0,0,6.345.734c-2.43,7.594-4.333,15.433-7.278,29.711-3.2,15.521-5.124,26.973-6.06,35.015A37.3,37.3,0,0,0,434.114,292.28Z" transform="translate(-73.384 553.172)" fill="#fff" stroke="rgba(255,255,255,0.96)" stroke-width="1"/>
      <path id="パス_2016" data-name="パス 2016" d="M422.6,306.48c-5.576-6.223-6.521-11.527-3.594-19.648,4.562-12.643,17.4-17.793,31.509-12.7.931.338,2.531.914,3.814,1.529a28.1,28.1,0,0,0,3.01,1.235c4.526,1.63,8.67.571,9.773-2.487a5.347,5.347,0,0,0-1.78-5.911c-1.876-1.881-4.579-3.155-15.358-7.04-12.911-4.662-16.264-6.622-19.564-10.819-3.775-4.97-4.478-10.942-2.127-17.463,5.62-15.574,23.18-21.722,42.213-14.858A47.146,47.146,0,0,1,488.045,229.3c5.453,5.73,7.216,12.533,4.715,19.45-3.023,8.385-9.408,11.5-21.7,10.973,5.88,2.874,8.094,7.585,6.077,13.175-1.92,5.321-5.822,7.378-14.413,7.431,7.822,5.836,10.384,14.581,7.071,23.766a23.323,23.323,0,0,1-13.456,13.948c-5.919,2.228-12.081,1.811-20.737-1.309-2.79-1.011-2.79-1.011-13.913-5.625a46.367,46.367,0,0,0-5.01-1.956c-4.926-1.776-8.3-2.843-11.592-3.731a6.312,6.312,0,0,0,.988-1.9,15.61,15.61,0,0,0,.691-2.76Zm36.589-6.359c3.792-10.511.716-18.241-8.6-21.6-9.716-3.507-17.165.883-21.339,12.458-3.937,10.916-1.041,18.729,8.279,22.091C447.374,316.617,454.871,312.1,459.191,300.121Zm25.259-53.761c3.551-9.849-2.878-19.538-16.321-24.389-13.047-4.707-24.473-.554-28.411,10.362-3.406,9.448,2.066,16.387,16.7,21.664C470.4,259.042,480.895,256.207,484.45,246.359Z" transform="translate(-131.349 514.351)" fill="#fff" stroke="rgba(255,255,255,0.96)" stroke-width="1"/>
      <path id="パス_2017" data-name="パス 2017" d="M428.611,283.45c-9.149,4.816-17.762,4.469-26.3-.831-5.893-3.656-9.747-8.714-11.069-14.37s-.229-10.63,3.8-17.125c.523-.839,3.406-5.212,6.631-9.875,1.911-2.812,4-6.174,6.241-9.786,5.668-9.136,8.534-14.018,10.533-17.776a37.323,37.323,0,0,0,4.992,3.766,45.86,45.86,0,0,0,5.229,2.58c-5.3,7.2-14.638,20.9-20.311,30.031-4.852,7.813-6.337,11.557-6.447,15.482-.206,5.7,2.492,10.212,7.783,13.5,6.372,3.955,13.289,4.083,18.466.3,4.174-3.238,6.926-6.864,17.073-23.211,4.627-7.457,6.073-10.054,10.969-19.01a43.39,43.39,0,0,0,4.873,3.687,39.1,39.1,0,0,0,5.344,2.658c-3.436,4.193-13.842,19.885-21.678,32.51-4.7,7.576-8.67,14.774-13.174,23.633a32.825,32.825,0,0,0-4.988-3.761,20.062,20.062,0,0,0-4.627-2.206c1.314-1.85,1.837-2.689,3.226-4.662Z" transform="translate(-180.126 508.104)" fill="#fff" stroke="rgba(255,255,255,0.96)" stroke-width="1"/>
      <path id="パス_2018" data-name="パス 2018" d="M436.1,247.732c-13.737,12.234-23.177,21.207-33.486,31.328-1.951-2.615-2.694-3.665-3.542-4.614a47.505,47.505,0,0,0-3.889-3.735,114.231,114.231,0,0,0,8.947-7.4,16.864,16.864,0,0,0,1.6-1.613c-9.541,3.757-19.4.98-26.832-7.369-11.76-13.206-9.632-30.823,5.264-44.09,15.745-14.014,34.8-14.313,46.753-.892,6.583,7.4,8.675,16.339,5.823,23.989l2.535-2.258,6.671-6.126c10.894-9.888,15.029-13.755,25.536-23.871a35.28,35.28,0,0,0,3.717,5.027,30.943,30.943,0,0,0,4.47,4.166c-3.358,2.61-5.568,4.39-12.213,10.116-3.265,2.716-5.7,4.877-9.487,8.068-5.7,4.877-9.171,7.783-10.969,9.382ZM403.01,258.441c5.686-1.274,11.289-4.557,18.263-10.766,13.1-11.663,15.82-23.932,7.449-33.341-8.469-9.509-21.686-7.971-35.318,4.162-13.526,12.041-16.76,24.583-8.665,33.67A18.8,18.8,0,0,0,403.01,258.441Z" transform="translate(-245.88 459.958)" fill="#fff" stroke="rgba(255,255,255,0.96)" stroke-width="1"/>
      <path id="パス_2019" data-name="パス 2019" d="M380.165,188.612c17.578-9.734,36.039-4.43,45.9,13.394,9.936,17.951,4.619,36.1-13.7,46.238-18.694,10.349-36.645,5.089-47.064-13.728C355.235,216.319,360.729,199.369,380.165,188.612Zm26.116,48.932c16.465-9.114,22.394-21.774,15.881-33.534-6.372-11.513-20.443-13.267-36.285-4.491-17.327,9.593-23.106,21.362-16.321,33.613C376.135,245.019,389.947,246.588,406.281,237.544Z" transform="translate(-283.146 406.642)" fill="#fff" stroke="rgba(255,255,255,0.96)" stroke-width="1"/>
      <path id="パス_2020" data-name="パス 2020" d="M365.1,176.079a11.19,11.19,0,0,0,.057,7.159c1.877,5.493,7.633,9.207,14.167,9.066,3.266-.07,8.315-1.5,22.373-6.306,7.233-2.474,17.27-6.354,21.686-8.314a38.178,38.178,0,0,0,1.389,5.805,42.738,42.738,0,0,0,2.5,5.576c-5.317,1.068-17.375,4.746-33.037,10.1-9.909,3.388-11.654,3.986-29.5,11.285a44.525,44.525,0,0,0-1.389-5.809,32.871,32.871,0,0,0-2.276-4.9l1.471-.5,5.4-1.7c2.992-.875,3.4-1.011,7.009-2.246-10.8-1.393-18.527-6.078-20.865-12.907a8.911,8.911,0,0,1-.436-4.337,35.49,35.49,0,0,0,8-1.543c.536-.18,1.428-.637,2.583-1.182Z" transform="translate(-306.175 377.876)" fill="#fff" stroke="rgba(255,255,255,0.96)" stroke-width="1"/>
      <path id="パス_2021" data-name="パス 2021" d="M348.086,192.808l1.692-.189,8.16-1.037c2.695-.242,5.19-.738,9.387-1.419l-3.243-14.937a11.151,11.151,0,0,0,3.027-.022,8.264,8.264,0,0,0,2.527-1.077l.329,1.67,1.094,5.55,1.261,6.385.246,1.248c4.219-.545,4.36-.571,23.013-3.968L407.8,182.6c8.745-1.732,11.324-2.527,14.216-4.685,3-2.325,4.315-5.9,3.463-10.2A20.94,20.94,0,0,0,423.3,161.8l3.191-.633c2.764,5.225,3.836,7.752,4.552,11.36,1.92,9.716-3.4,17.112-13.667,19.143-1.252.246-5.027.848-8.8,1.45-5.33.765-21.208,3.612-29.118,5.176a45.132,45.132,0,0,0-4.829,1.1c.985,5,1.591,7.33,2.03,8.829a9.6,9.6,0,0,0-2.72.105,10.463,10.463,0,0,0-2.694.962l-1.806-9.158-1.807.356c-2.083.413-8.385,2.087-13.021,3.436a43.773,43.773,0,0,0-7-10.586Z" transform="translate(-326.415 329.811)" fill="#fff" stroke="rgba(255,255,255,0.96)" stroke-width="1"/>
      <path id="パス_2022" data-name="パス 2022" d="M384.051,145.206c20.083-.668,34.11,12.454,34.787,32.822.681,20.5-12.313,34.241-33.243,34.936-21.353.712-34.945-12.146-35.661-33.639C349.242,158.534,361.851,145.94,384.051,145.206Zm.993,55.463c18.809-.624,29.848-9.2,29.4-22.636-.434-13.153-12.168-21.115-30.269-20.518-19.8.66-30.3,8.512-29.834,22.508C354.8,193.6,366.377,201.288,385.044,200.668Z" transform="translate(-318.642 275.562)" fill="#fff" stroke="rgba(255,255,255,0.96)" stroke-width="1"/>
      <path id="パス_2023" data-name="パス 2023" d="M382.559,142.907c1.525.343,2.21.571,3.05.681a4.744,4.744,0,0,0,2-.022l-.238,1.824-.786,4.891-.862,6.6-.242,1.819c28.775,3.626,56.047,6.772,59.044,6.737a57.743,57.743,0,0,0-1.389,6.24,39.187,39.187,0,0,0-.189,5.823c-12.392-2.338-12.673-2.373-43.514-6.557l-13.069-1.569-2.382-.308-.167,1.261-.373,3.946-.357,3.806-.127.98a10.848,10.848,0,0,0-2.628-.628,10.2,10.2,0,0,0-2.7-.07l1.586-9.918c-11.33-1.771-17.034-3.946-24.3-9.466-9.228-6.912-13.1-14.409-11.922-23.387a10.974,10.974,0,0,1,1.507-4.94,43.711,43.711,0,0,0,11.193,6.029l.677,1.375a8.123,8.123,0,0,0-4.6,6.816c-.809,6.17,3.753,11.619,10.63,12.52a45.182,45.182,0,0,0,5.243.259c5.563.013,9.11.193,12.915.549Z" transform="translate(-342.792 226.223)" fill="#fff" stroke="rgba(255,255,255,0.96)" stroke-width="1"/>
      <path id="パス_2024" data-name="パス 2024" d="M398.866,119.191C418.092,125.045,427.127,142,421.19,161.5c-5.981,19.63-22.719,28.441-42.754,22.337-20.443-6.227-29.158-22.789-22.891-43.369C361.61,120.567,377.61,112.714,398.866,119.191ZM381.89,172.012c18,5.484,31.227.932,35.143-11.931,3.837-12.59-4.7-23.919-22.025-29.2-18.953-5.774-31.429-1.731-35.511,11.672C355.537,155.555,364.018,166.568,381.89,172.012Z" transform="translate(-306.278 179.794)" fill="#fff" stroke="rgba(255,255,255,0.96)" stroke-width="1"/>
      <path id="パス_2025" data-name="パス 2025" d="M354.2,109.41a38.424,38.424,0,0,0,2.153-5.405c6.433,3.6,30.554,15.789,45.575,23.084,21.124,10.261,41.163,19.525,48.093,22.421a42.065,42.065,0,0,0-3.1,5.1,42.806,42.806,0,0,0-2.149,5.722c-14.906-8.182-18.848-10.1-50.413-25.431-23.163-11.254-34.228-16.317-43.259-20.074A47.335,47.335,0,0,0,354.2,109.41Z" transform="translate(-314.599 135.791)" fill="#fff" stroke="rgba(255,255,255,0.96)" stroke-width="1"/>
      <path id="パス_2026" data-name="パス 2026" d="M367.97,98.271a7.075,7.075,0,1,1-9.637,2.3A7.163,7.163,0,0,1,367.97,98.271Zm17.112,18.518a26.218,26.218,0,0,0,2.426-5.146c4.517,3.2,18.861,12.3,28.938,18.351,7.765,4.658,22.183,12.814,27.742,15.658a29.6,29.6,0,0,0-3.472,4.684,41.643,41.643,0,0,0-2.79,5.752c-6.359-4.807-13.131-9.2-25.633-16.7-13.593-8.156-23.765-13.763-31.047-17.31A36.641,36.641,0,0,0,385.082,116.789Z" transform="translate(-293.727 113.001)" fill="#fff" stroke="rgba(255,255,255,0.96)" stroke-width="1"/>
      <path id="パス_2027" data-name="パス 2027" d="M427.128,96.682c15.442,12.854,17.191,31.987,4.157,47.649-13.126,15.767-31.965,17.393-48.062,3.995-16.422-13.667-18.031-32.312-4.271-48.844C392.258,83.495,410.051,82.471,427.128,96.682Zm-36.14,42.09c14.467,12.041,28.415,12.972,37.015,2.641,8.42-10.116,4.953-23.866-8.969-35.45-15.227-12.674-28.291-13.79-37.252-3.023C373.089,113.381,376.631,126.824,390.988,138.773Z" transform="translate(-251.58 77.092)" fill="#fff" stroke="rgba(255,255,255,0.96)" stroke-width="1"/>
      <path id="パス_2028" data-name="パス 2028" d="M423.206,165.17c3.291-15.776,3.744-17.626,6.645-36.733,1.982-13.175,2.281-18.514,1.2-25.136a49.275,49.275,0,0,0-7.426-19.437c-6.376-9.356-16.655-12.111-24.724-6.614-7.132,4.865-8.74,12.81-4.6,22.152l-1.168.8c-1.978-1.393-4.738-2.421-8.749-3.287-.225-10.125,4.205-18.452,13.556-24.829,14.036-9.571,27.557-7.827,36.008,4.57a34.05,34.05,0,0,1,5.686,22.161c-.452,5.616-.452,5.616-3.744,25.163l-2.031,12.348c-1.292,7.906-1.546,9.791-1.736,14.031l6.276-4.109c7.251-4.944,21.822-15.732,29.609-21.9a37.7,37.7,0,0,0,2.756,4.8,34.547,34.547,0,0,0,3.3,4.091c-7.69,4.553-13.733,8.5-21.919,14.084-10.054,6.855-24.4,16.976-27.548,19.639Z" transform="translate(-201.645 6.648)" fill="#fff" stroke="rgba(255,255,255,0.96)" stroke-width="1"/>
      <path id="パス_2029" data-name="パス 2029" d="M447.972,60.523C455.98,65.493,462.641,75,469.2,90.964c6.5,15.838,8.508,27.408,6.253,36.443-2.18,8.85-8.582,15.613-18.527,19.7s-19.257,3.779-27.026-.984c-7.954-4.838-14.664-14.475-21.172-30.313-6.561-15.969-8.455-27.276-6.306-36.57C404.6,70.389,411,63.626,421.21,59.433,430.9,55.452,440.388,55.839,447.972,60.523ZM419.408,111.27c11.241,27.355,22.372,37.318,35.851,31.781s14.4-20.452,3.155-47.807c-5.164-12.564-9.835-20.588-15.306-26.45-5.7-6.069-13.293-8.152-20.359-5.247C409.134,69.136,408.115,83.783,419.408,111.27Z" transform="translate(-143.242 -24.766)" fill="#fff" stroke="rgba(255,255,255,0.96)" stroke-width="1"/>
      <path id="パス_2030" data-name="パス 2030" d="M428.292,147.562c9.352-13.117,10.508-14.629,20.839-30.954,7.106-11.263,9.522-16.035,11.184-22.535a49.178,49.178,0,0,0,1.01-20.773c-2.083-11.127-10.379-17.776-19.976-15.983-8.481,1.586-13.144,8.218-13.1,18.43l-1.388.259c-1.253-2.07-3.366-4.122-6.693-6.521,3.863-9.36,11.263-15.2,22.389-17.288,16.686-3.12,28.367,3.907,31.122,18.65a34.052,34.052,0,0,1-3.692,22.57c-2.672,4.961-2.672,4.961-13.535,21.528l-6.816,10.49c-4.36,6.715-5.353,8.341-7.229,12.146l7.4-1.239c8.622-1.613,26.3-5.638,35.9-8.156a37.258,37.258,0,0,0,.6,5.5,34.055,34.055,0,0,0,1.38,5.067c-8.864,1.085-15.982,2.272-25.721,4.091-11.957,2.237-29.148,5.743-33.1,6.912Z" transform="translate(-80.161 -42.539)" fill="#fff" stroke="rgba(255,255,255,0.96)" stroke-width="1"/>
      <path id="パス_2031" data-name="パス 2031" d="M477.6,50.307c-1.736,19.929-2.158,28.555-2.439,45.957-.312,19.524-.056,38.632.774,48.695a46.653,46.653,0,0,0-6.785-.672,44.78,44.78,0,0,0-6.8.453c1.459-20.355,1.684-25.3,2.259-60.96l.176-11.175c-.062-4.953-.062-4.953.018-9.624a29.545,29.545,0,0,1,.185-2.971c-3.99,1.92-15.557,8.244-20.412,10.995a18.155,18.155,0,0,0-5.431-5.467c13.1-5.163,28.493-11.711,37.054-16.1Z" transform="translate(-15.742 -49.437)" fill="#fff" stroke="rgba(255,255,255,0.96)" stroke-width="1"/>
    </g>
  </g>
</svg>
