<svg xmlns="http://www.w3.org/2000/svg" width="1095.082" height="158.207" viewBox="0 0 1095.082 158.207">
  <path id="パス_2039" data-name="パス 2039" d="M-516.226-129.107a86.52,86.52,0,0,1,5.655-17.176c-10.054-6.912-19.27-9.845-31.419-9.845-26.182,0-44.2,15.709-44.2,38.959,0,18.013,9.426,28.486,34.77,38.959,14.662,6.074,17.8,7.75,22.831,12.358,4.818,4.608,7.331,10.473,7.331,17.8,0,17.176-12.567,29.534-29.534,29.534a36.743,36.743,0,0,1-32.675-21.155h-2.095c-.628,6.284-1.257,9.635-4.189,18.642,9.635,7.75,21.784,11.73,35.189,11.73,28.067,0,49.642-19.9,49.642-45.871,0-9.635-3.142-17.594-9.426-23.669-5.027-5.027-9.007-7.331-23.04-13.2-12.358-5.027-18.642-8.378-23.669-11.939a23.613,23.613,0,0,1-9.216-18.851c0-14.243,11.1-25.135,25.763-25.135a27.407,27.407,0,0,1,26.182,18.851Zm46.081,95.094A11.629,11.629,0,0,0-481.875-22.7c0,6.493,5.027,11.939,11.311,11.939a11.628,11.628,0,0,0,11.939-11.73A11.623,11.623,0,0,0-470.145-34.013Zm60.324-49.642c5.865-.209,6.7-.209,22.2-.419h21.155c33.932.209,34.351.209,40.216.209l3.142.209a85.905,85.905,0,0,1,.419,10.054c0,24.088-.838,49.432-2.3,61.581a86.26,86.26,0,0,1,10.682-.838,68.614,68.614,0,0,1,10.054.838c-1.466-17.594-1.885-32.675-1.885-72.473,0-36.027.419-54.04,1.885-68.912a55.821,55.821,0,0,1-10.054.838,66.252,66.252,0,0,1-10.682-.838c1.047,9.635,2.095,37.493,2.095,54.878,0,.628,0,3.142-.209,5.446a26.491,26.491,0,0,1-3.351.209l-18.851.209-21.155.209-20.946-.209-19.061-.209s-1.257,0-3.351-.209v-5.446c0-17.385,1.047-45.452,1.885-54.878a62.093,62.093,0,0,1-10.473.838,55.821,55.821,0,0,1-10.054-.838c1.466,15.29,2.095,32.466,2.095,68.912,0,40.216-.419,54.878-2.095,72.473a68.615,68.615,0,0,1,10.054-.838,83.6,83.6,0,0,1,10.473.838c-1.047-11.52-1.885-38.121-1.885-60.533Zm142.432-4.608c5.236-9.426,14.662-14.662,25.554-14.662,10.473,0,18.851,5.446,21.784,14.453,1.676,4.818,1.676,5.446,1.676,16.757v.419c-5.446,3.561-10.054,5.027-25.135,7.541-14.453,2.3-20.527,4.4-25.973,8.378-5.865,4.189-9.216,11.73-9.216,20.527,0,15.709,10.892,25.554,28.277,25.554,12.149,0,22.412-4.818,31.628-14.872,1.257,8.378,5.865,12.358,14.243,12.358,4.4,0,8.169-.838,13.824-3.142v-3.98c-2.095.209-3.142.419-4.4.419a6.967,6.967,0,0,1-7.122-5.446c-.838-2.513-1.047-7.331-1.047-20.108,0-7.959.209-13.405.419-21.365.209-5.446.419-10.054.419-13.824,0-20.108-12.567-32.047-33.513-32.047-11.73,0-21.574,3.351-33.513,11.311a39.975,39.975,0,0,1,.628,5.865,39.975,39.975,0,0,1-.628,5.865Zm49.223,25.344v1.885l-.419,12.567v5.027c-.209,4.189-.209,5.446-.209,10.892-5.446,8.8-14.872,14.453-24.088,14.453-11.1,0-18.851-7.75-18.851-18.851,0-7.959,3.142-13.615,9.635-17.176,4.189-2.3,5.027-2.513,31.628-8.378ZM-87.465-13.7c-3.142-3.98-5.865-7.331-11.52-13.615-4.608-5.236-9.216-10.263-13.615-15.081-3.77-4.4-7.54-8.8-11.311-12.986-6.7-7.75-10.892-12.149-12.149-13.615,1.466-1.257,2.3-1.885,2.513-2.095l9.845-9.426c2.932-2.513,4.608-3.98,21.784-18.432l10.682-8.8a28.718,28.718,0,0,0,2.723-2.723,63.911,63.911,0,0,1-11.52,1.257,39.933,39.933,0,0,1-6.7-.628c-2.932,3.142-18.432,19.689-24.088,25.554-14.453,14.453-17.8,17.176-21.993,17.176h-2.514c-.209-9.635-.209-14.243-.209-19.9,0-25.554,1.047-64.723,2.095-79.385a88.323,88.323,0,0,1-9.426.838,52.516,52.516,0,0,1-8.588-.838c.628,9.845.628,13.824.838,24.3v24.507l.209,25.763v10.892c0,25.344-.838,57.392-1.676,68.912a45.443,45.443,0,0,1,8.588-.838,45.945,45.945,0,0,1,8.8.838c-.419-6.7-.628-15.29-.838-38.75l-.209-9.426v-2.513h1.676c1.466,0,2.3.209,2.932.838.838.419.838.419,12.777,13.615C-132.5-41.763-120.35-27.311-108.2-12.02a52.378,52.378,0,0,1,10.054-1.047A53.747,53.747,0,0,1-88.3-12.02Zm23.25-74.567c5.236-9.426,14.662-14.662,25.554-14.662,10.473,0,18.851,5.446,21.784,14.453C-15.2-83.655-15.2-83.027-15.2-71.716v.419c-5.446,3.561-10.054,5.027-25.135,7.541-14.453,2.3-20.527,4.4-25.973,8.378-5.865,4.189-9.216,11.73-9.216,20.527C-75.526-19.142-64.634-9.3-47.249-9.3c12.149,0,22.412-4.818,31.628-14.872,1.257,8.378,5.865,12.358,14.243,12.358,4.4,0,8.169-.838,13.824-3.142v-3.98c-2.095.209-3.142.419-4.4.419A6.967,6.967,0,0,1,.926-23.959C.088-26.473-.121-31.29-.121-44.067c0-7.959.209-13.405.419-21.365.209-5.446.419-10.054.419-13.824C.717-99.364-11.851-111.3-32.8-111.3c-11.73,0-21.574,3.351-33.513,11.311a39.975,39.975,0,0,1,.628,5.865,39.975,39.975,0,0,1-.628,5.865Zm49.223,25.344v1.885l-.419,12.567v5.027c-.209,4.189-.209,5.446-.209,10.892-5.446,8.8-14.872,14.453-24.088,14.453-11.1,0-18.851-7.75-18.851-18.851,0-7.959,3.142-13.615,9.635-17.176,4.189-2.3,5.027-2.513,31.628-8.378ZM47.845-94.128c0-4.4.209-12.986.419-15.709a37.348,37.348,0,0,1-8.588.838,37.322,37.322,0,0,1-8.169-.838c1.257,11.311,1.676,24.716,1.676,46.709,0,19.689-.419,35.608-1.676,51.108a52.516,52.516,0,0,1,8.588-.838,78.128,78.128,0,0,1,9.216.838c-.838-9.007-1.257-20.317-1.257-38.121,0-22.621.419-28.905,2.932-35.608,3.351-9.845,11.939-15.709,23.04-15.709,9.635,0,15.919,3.77,19.48,11.52C95.6-85.121,96.02-79.885,96.02-60.824c0,16.338-1.047,39.378-2.095,48.8a68.679,68.679,0,0,1,9.216-.838,48.758,48.758,0,0,1,8.588.838c-.419-7.54-.838-27.23-.838-46.5,0-16.338,1.676-27.02,5.027-32.257,4.189-6.493,12.149-10.682,20.527-10.682,6.7,0,13.2,2.723,17.176,7.54,3.77,4.4,5.027,9.426,5.027,19.9,0,14.872-.838,45.243-1.885,62a47.7,47.7,0,0,1,17.8,0c-.628-9.845-1.047-18.432-1.047-29.324,0-7.54.209-15.709.628-23.459.209-6.912.419-13.615.419-16.966,0-9.635-2.3-15.919-7.959-21.155-5.655-5.446-14.034-8.378-23.459-8.378-15.081,0-26.392,7.122-33.3,20.527C105.655-104.6,96.02-111.3,80.1-111.3c-14.453,0-23.669,5.655-32.257,19.689Zm162.539,5.865c5.236-9.426,14.662-14.662,25.554-14.662,10.473,0,18.851,5.446,21.784,14.453,1.676,4.818,1.676,5.446,1.676,16.757v.419c-5.446,3.561-10.054,5.027-25.135,7.541-14.453,2.3-20.527,4.4-25.973,8.378-5.865,4.189-9.216,11.73-9.216,20.527,0,15.709,10.892,25.554,28.277,25.554,12.149,0,22.412-4.818,31.628-14.872,1.257,8.378,5.865,12.358,14.243,12.358,4.4,0,8.169-.838,13.824-3.142v-3.98c-2.095.209-3.142.419-4.4.419a6.967,6.967,0,0,1-7.122-5.446c-.838-2.513-1.047-7.331-1.047-20.108,0-7.959.209-13.405.419-21.365.209-5.446.419-10.054.419-13.824,0-20.108-12.568-32.047-33.513-32.047-11.73,0-21.574,3.351-33.513,11.311a39.983,39.983,0,0,1,.628,5.865,39.983,39.983,0,0,1-.628,5.865Zm49.223,25.344v1.885l-.419,12.567v5.027c-.209,4.189-.209,5.446-.209,10.892-5.446,8.8-14.872,14.453-24.088,14.453-11.1,0-18.851-7.75-18.851-18.851,0-7.959,3.142-13.615,9.635-17.176,4.189-2.3,5.027-2.513,31.628-8.378Zm119.6-50.9C379-103.135,379-98.527,379-95.385a37.011,37.011,0,0,0,.209,3.98c-5.446-12.986-16.757-19.9-32.466-19.9-27.439,0-44.824,20.736-44.824,53.2,0,29.115,16.757,48.385,42.1,48.385,16.338,0,27.858-7.331,35.4-22.831v5.027L379-17.257l-.209,5.236a40.015,40.015,0,0,1,8.169-.838,29.186,29.186,0,0,1,7.331.838,134.8,134.8,0,0,1-.419-13.824c0-4.608,0-17.385-.209-38.121l.209-25.554.209-24.716c1.047-42.729,1.047-43.148,1.885-52.155a40.015,40.015,0,0,1-8.169.838,73.446,73.446,0,0,1-9.635-.838c.628,11.73,1.047,25.554,1.047,45.034Zm-28.7,10.473c17.594,0,28.486,15.5,28.486,40.425,0,27.648-11.939,45.452-30.371,45.452-18.013,0-28.486-15.081-28.486-40.635C320.14-87.425,330.823-103.344,350.512-103.344Zm77.081,15.081c5.236-9.426,14.662-14.662,25.554-14.662,10.473,0,18.851,5.446,21.784,14.453,1.676,4.818,1.676,5.446,1.676,16.757v.419c-5.446,3.561-10.054,5.027-25.135,7.541-14.453,2.3-20.527,4.4-25.973,8.378-5.865,4.189-9.216,11.73-9.216,20.527,0,15.709,10.892,25.554,28.277,25.554,12.149,0,22.412-4.818,31.628-14.872,1.257,8.378,5.865,12.358,14.243,12.358,4.4,0,8.169-.838,13.824-3.142v-3.98c-2.095.209-3.142.419-4.4.419a6.967,6.967,0,0,1-7.122-5.446c-.838-2.513-1.047-7.331-1.047-20.108,0-7.959.209-13.405.419-21.365.209-5.446.419-10.054.419-13.824,0-20.108-12.568-32.047-33.513-32.047-11.73,0-21.574,3.351-33.513,11.311a39.979,39.979,0,0,1,.628,5.865,39.979,39.979,0,0,1-.628,5.865Zm49.223,25.344v1.885L476.4-48.466v5.027c-.209,4.189-.209,5.446-.209,10.892-5.446,8.8-14.872,14.453-24.088,14.453-11.1,0-18.851-7.75-18.851-18.851,0-7.959,3.142-13.615,9.635-17.176,4.189-2.3,5.027-2.513,31.628-8.378Z" transform="translate(590.328 167.005)" fill="none" stroke="#fff" stroke-width="1" style="mix-blend-mode: difference;isolation: isolate"/>
</svg>
